<?xml version="1.0" encoding="us-ascii" standalone="no"?><svg xmlns="http://www.w3.org/2000/svg" xmlns:xlink="http://www.w3.org/1999/xlink" contentStyleType="text/css" height="363px" preserveAspectRatio="none" style="width:493px;height:363px;background:#FFFFFF;" version="1.1" viewBox="0 0 493 363" width="493px" zoomAndPan="magnify"><defs/><g><text fill="#000000" font-family="sans-serif" font-size="14" font-weight="bold" lengthAdjust="spacing" textLength="126.1875" x="176.6563" y="26.1533">Animal &#52628;&#49345;&#54868; &#44396;&#51312;</text><!--class Animal--><g id="elem_Animal"><rect codeLine="3" fill="#F1F1F1" height="144.1475" id="Animal" rx="2.5" ry="2.5" style="stroke:#181818;stroke-width:0.5;" width="154" x="170" y="47.2295"/><ellipse cx="221.75" cy="63.2295" fill="#A9DCDF" rx="11" ry="11" style="stroke:#181818;stroke-width:1.0;"/><path d="M220.3906,63.5889 L221.7813,58.5576 L223.1719,63.5889 L220.3906,63.5889 Z M220.6875,56.8545 L217.5469,68.167 Q217.375,68.5576 217.5156,68.8701 Q217.6563,69.1826 218,69.2607 Q218.2813,69.3232 218.5938,69.167 Q218.8438,68.9795 218.9844,68.6982 L220,65.0264 L223.5313,65.0264 L224.5313,68.7139 Q224.6094,69.0576 224.9219,69.1982 Q225.1719,69.3232 225.4688,69.2607 Q225.75,69.1826 225.9375,68.9326 Q226.1094,68.667 226.0156,68.3232 L222.8906,56.8545 Q222.5625,55.9795 221.7813,55.9639 Q220.9844,55.9639 220.6875,56.8545 Z " fill="#000000"/><text fill="#000000" font-family="sans-serif" font-size="14" font-style="italic" lengthAdjust="spacing" textLength="42" x="242.25" y="69.7681">Animal</text><line style="stroke:#181818;stroke-width:0.5;" x1="171" x2="323" y1="79.2295" y2="79.2295"/><rect fill="none" height="6" style="stroke:#C82930;stroke-width:1.0;" width="6" x="178" y="91.3442"/><text fill="#000000" font-family="sans-serif" font-size="14" lengthAdjust="spacing" textLength="84" x="190" y="99.3828">name : String</text><line style="stroke:#181818;stroke-width:1.0;" x1="171" x2="323" y1="106.459" y2="106.459"/><ellipse cx="181" cy="121.5737" fill="#84BE84" rx="3" ry="3" style="stroke:#038048;stroke-width:1.0;"/><text fill="#000000" font-family="sans-serif" font-size="14" lengthAdjust="spacing" textLength="128" x="190" y="126.6123">Animal(name:String)</text><ellipse cx="181" cy="140.8032" fill="#84BE84" rx="3" ry="3" style="stroke:#038048;stroke-width:1.0;"/><text fill="#000000" font-family="sans-serif" font-size="14" lengthAdjust="spacing" textLength="116" x="190" y="145.8418">showName() : void</text><ellipse cx="181" cy="160.0327" fill="#84BE84" rx="3" ry="3" style="stroke:#038048;stroke-width:1.0;"/><text fill="#000000" font-family="sans-serif" font-size="14" lengthAdjust="spacing" textLength="87" x="190" y="165.0713">sound() : void</text><ellipse cx="181" cy="179.2622" fill="#84BE84" rx="3" ry="3" style="stroke:#038048;stroke-width:1.0;"/><text fill="#000000" font-family="sans-serif" font-size="14" lengthAdjust="spacing" textLength="82" x="190" y="184.3008">move() : void</text></g><!--class Dog--><g id="elem_Dog"><rect codeLine="12" fill="#F1F1F1" height="105.6885" id="Dog" rx="2.5" ry="2.5" style="stroke:#181818;stroke-width:0.5;" width="138" x="7" y="251.2295"/><ellipse cx="58.75" cy="267.2295" fill="#ADD1B2" rx="11" ry="11" style="stroke:#181818;stroke-width:1.0;"/><path d="M58.5781,260.7139 Q56.7031,260.7139 55.5469,262.4639 Q54.3594,264.2451 54.3594,267.2451 Q54.3594,270.6201 55.5625,272.3857 Q56.625,274.0107 58.375,274.0107 Q60.0625,274.0107 61.0156,273.1045 Q62.0781,272.0889 62.2188,269.8545 Q62.2188,269.4326 61.9844,269.1982 Q61.7969,268.9639 61.4531,268.9326 Q61.125,268.9326 60.8906,269.1201 Q60.625,269.3545 60.625,269.7451 Q60.5938,271.1357 60,271.8701 Q59.4688,272.5732 58.5156,272.5732 Q57.3594,272.5732 56.6406,271.1357 Q55.9219,269.6357 55.9219,267.2139 Q55.9219,264.667 56.8125,263.2764 Q57.5625,262.1514 58.7031,262.1514 Q59.3594,262.1514 59.8594,262.6982 Q60.4219,263.3076 60.5469,264.3701 Q60.5938,265.0732 61.4219,264.9639 Q62.2031,264.8545 62.1563,264.167 Q61.9688,262.6514 61.2031,261.7764 Q60.2656,260.7139 58.5781,260.7139 Z " fill="#000000"/><text fill="#000000" font-family="sans-serif" font-size="14" lengthAdjust="spacing" textLength="26" x="79.25" y="273.7681">Dog</text><line style="stroke:#181818;stroke-width:0.5;" x1="8" x2="144" y1="283.2295" y2="283.2295"/><line style="stroke:#181818;stroke-width:0.5;" x1="8" x2="144" y1="291.2295" y2="291.2295"/><ellipse cx="18" cy="306.3442" fill="#84BE84" rx="3" ry="3" style="stroke:#038048;stroke-width:1.0;"/><text fill="#000000" font-family="sans-serif" font-size="14" lengthAdjust="spacing" textLength="112" x="27" y="311.3828">Dog(name:String)</text><ellipse cx="18" cy="325.5737" fill="#84BE84" rx="3" ry="3" style="stroke:#038048;stroke-width:1.0;"/><text fill="#000000" font-family="sans-serif" font-size="14" lengthAdjust="spacing" textLength="87" x="27" y="330.6123">sound() : void</text><ellipse cx="18" cy="344.8032" fill="#84BE84" rx="3" ry="3" style="stroke:#038048;stroke-width:1.0;"/><text fill="#000000" font-family="sans-serif" font-size="14" lengthAdjust="spacing" textLength="82" x="27" y="349.8418">move() : void</text></g><!--class Cat--><g id="elem_Cat"><rect codeLine="18" fill="#F1F1F1" height="105.6885" id="Cat" rx="2.5" ry="2.5" style="stroke:#181818;stroke-width:0.5;" width="134" x="180" y="251.2295"/><ellipse cx="231.75" cy="267.2295" fill="#ADD1B2" rx="11" ry="11" style="stroke:#181818;stroke-width:1.0;"/><path d="M231.5781,260.7139 Q229.7031,260.7139 228.5469,262.4639 Q227.3594,264.2451 227.3594,267.2451 Q227.3594,270.6201 228.5625,272.3857 Q229.625,274.0107 231.375,274.0107 Q233.0625,274.0107 234.0156,273.1045 Q235.0781,272.0889 235.2188,269.8545 Q235.2188,269.4326 234.9844,269.1982 Q234.7969,268.9639 234.4531,268.9326 Q234.125,268.9326 233.8906,269.1201 Q233.625,269.3545 233.625,269.7451 Q233.5938,271.1357 233,271.8701 Q232.4688,272.5732 231.5156,272.5732 Q230.3594,272.5732 229.6406,271.1357 Q228.9219,269.6357 228.9219,267.2139 Q228.9219,264.667 229.8125,263.2764 Q230.5625,262.1514 231.7031,262.1514 Q232.3594,262.1514 232.8594,262.6982 Q233.4219,263.3076 233.5469,264.3701 Q233.5938,265.0732 234.4219,264.9639 Q235.2031,264.8545 235.1563,264.167 Q234.9688,262.6514 234.2031,261.7764 Q233.2656,260.7139 231.5781,260.7139 Z " fill="#000000"/><text fill="#000000" font-family="sans-serif" font-size="14" lengthAdjust="spacing" textLength="22" x="252.25" y="273.7681">Cat</text><line style="stroke:#181818;stroke-width:0.5;" x1="181" x2="313" y1="283.2295" y2="283.2295"/><line style="stroke:#181818;stroke-width:0.5;" x1="181" x2="313" y1="291.2295" y2="291.2295"/><ellipse cx="191" cy="306.3442" fill="#84BE84" rx="3" ry="3" style="stroke:#038048;stroke-width:1.0;"/><text fill="#000000" font-family="sans-serif" font-size="14" lengthAdjust="spacing" textLength="108" x="200" y="311.3828">Cat(name:String)</text><ellipse cx="191" cy="325.5737" fill="#84BE84" rx="3" ry="3" style="stroke:#038048;stroke-width:1.0;"/><text fill="#000000" font-family="sans-serif" font-size="14" lengthAdjust="spacing" textLength="87" x="200" y="330.6123">sound() : void</text><ellipse cx="191" cy="344.8032" fill="#84BE84" rx="3" ry="3" style="stroke:#038048;stroke-width:1.0;"/><text fill="#000000" font-family="sans-serif" font-size="14" lengthAdjust="spacing" textLength="82" x="200" y="349.8418">move() : void</text></g><!--class Bird--><g id="elem_Bird"><rect codeLine="24" fill="#F1F1F1" height="105.6885" id="Bird" rx="2.5" ry="2.5" style="stroke:#181818;stroke-width:0.5;" width="137" x="349.5" y="251.2295"/><ellipse cx="401.25" cy="267.2295" fill="#ADD1B2" rx="11" ry="11" style="stroke:#181818;stroke-width:1.0;"/><path d="M401.0781,260.7139 Q399.2031,260.7139 398.0469,262.4639 Q396.8594,264.2451 396.8594,267.2451 Q396.8594,270.6201 398.0625,272.3857 Q399.125,274.0107 400.875,274.0107 Q402.5625,274.0107 403.5156,273.1045 Q404.5781,272.0889 404.7188,269.8545 Q404.7188,269.4326 404.4844,269.1982 Q404.2969,268.9639 403.9531,268.9326 Q403.625,268.9326 403.3906,269.1201 Q403.125,269.3545 403.125,269.7451 Q403.0938,271.1357 402.5,271.8701 Q401.9688,272.5732 401.0156,272.5732 Q399.8594,272.5732 399.1406,271.1357 Q398.4219,269.6357 398.4219,267.2139 Q398.4219,264.667 399.3125,263.2764 Q400.0625,262.1514 401.2031,262.1514 Q401.8594,262.1514 402.3594,262.6982 Q402.9219,263.3076 403.0469,264.3701 Q403.0938,265.0732 403.9219,264.9639 Q404.7031,264.8545 404.6563,264.167 Q404.4688,262.6514 403.7031,261.7764 Q402.7656,260.7139 401.0781,260.7139 Z " fill="#000000"/><text fill="#000000" font-family="sans-serif" font-size="14" lengthAdjust="spacing" textLength="25" x="421.75" y="273.7681">Bird</text><line style="stroke:#181818;stroke-width:0.5;" x1="350.5" x2="485.5" y1="283.2295" y2="283.2295"/><line style="stroke:#181818;stroke-width:0.5;" x1="350.5" x2="485.5" y1="291.2295" y2="291.2295"/><ellipse cx="360.5" cy="306.3442" fill="#84BE84" rx="3" ry="3" style="stroke:#038048;stroke-width:1.0;"/><text fill="#000000" font-family="sans-serif" font-size="14" lengthAdjust="spacing" textLength="111" x="369.5" y="311.3828">Bird(name:String)</text><ellipse cx="360.5" cy="325.5737" fill="#84BE84" rx="3" ry="3" style="stroke:#038048;stroke-width:1.0;"/><text fill="#000000" font-family="sans-serif" font-size="14" lengthAdjust="spacing" textLength="87" x="369.5" y="330.6123">sound() : void</text><ellipse cx="360.5" cy="344.8032" fill="#84BE84" rx="3" ry="3" style="stroke:#038048;stroke-width:1.0;"/><text fill="#000000" font-family="sans-serif" font-size="14" lengthAdjust="spacing" textLength="82" x="369.5" y="349.8418">move() : void</text></g><!--reverse link Animal to Dog--><g id="link_Animal_Dog"><path codeLine="30" d="M168.3524,204.393 C149.7624,224.293 142.19,232.3895 124.82,250.9795 " fill="none" id="Animal-backto-Dog" style="stroke:#181818;stroke-width:1.0;"/><polygon fill="none" points="180.64,191.2395,163.9679,200.2971,172.7369,208.4889,180.64,191.2395" style="stroke:#181818;stroke-width:1.0;"/></g><!--reverse link Animal to Cat--><g id="link_Animal_Cat"><path codeLine="31" d="M247,209.2395 C247,229.1395 247,232.3895 247,250.9795 " fill="none" id="Animal-backto-Cat" style="stroke:#181818;stroke-width:1.0;"/><polygon fill="none" points="247,191.2395,241,209.2395,253,209.2395,247,191.2395" style="stroke:#181818;stroke-width:1.0;"/></g><!--reverse link Animal to Bird--><g id="link_Animal_Bird"><path codeLine="32" d="M325.6476,204.393 C344.2376,224.293 351.81,232.3895 369.18,250.9795 " fill="none" id="Animal-backto-Bird" style="stroke:#181818;stroke-width:1.0;"/><polygon fill="none" points="313.36,191.2395,321.2631,208.4889,330.0321,200.2971,313.36,191.2395" style="stroke:#181818;stroke-width:1.0;"/></g><!--SRC=[AyaioKbLSCpBp4tCKNYpRSgRviQtCwSelDgwvit23LnSYKd59KM9oIKAoJc9nSKmTTLS2Wgw2dc9kQaALWh19KMPUUaW4LqWeGrLem6IjOB8QOB5YpFoo_s0WXgQG4rb-Paf4D7yqhmKLA7S_38aHRLSN12xNVBJmHPhWrXOZ2VQ8EV44gX1G1Ob1Zbb5gL0JG8noJCA6gGsDRgw88-Xy87kG-63R040]--></g></svg>