<?xml version="1.0" encoding="us-ascii" standalone="no"?><svg xmlns="http://www.w3.org/2000/svg" xmlns:xlink="http://www.w3.org/1999/xlink" contentStyleType="text/css" height="402px" preserveAspectRatio="none" style="width:1144px;height:402px;background:#FFFFFF;" version="1.1" viewBox="0 0 1144 402" width="1144px" zoomAndPan="magnify"><defs/><g><text fill="#000000" font-family="sans-serif" font-size="14" font-weight="bold" lengthAdjust="spacing" textLength="201.875" x="464.3125" y="26.1533">RPG GameCharacter ISA &#44396;&#51312;</text><!--class GameCharacter--><g id="elem_GameCharacter"><rect codeLine="3" fill="#F1F1F1" height="163.377" id="GameCharacter" rx="2.5" ry="2.5" style="stroke:#181818;stroke-width:0.5;" width="312" x="415" y="47.2295"/><ellipse cx="516.25" cy="63.2295" fill="#ADD1B2" rx="11" ry="11" style="stroke:#181818;stroke-width:1.0;"/><path d="M516.0781,56.7139 Q514.2031,56.7139 513.0469,58.4639 Q511.8594,60.2451 511.8594,63.2451 Q511.8594,66.6201 513.0625,68.3857 Q514.125,70.0107 515.875,70.0107 Q517.5625,70.0107 518.5156,69.1045 Q519.5781,68.0889 519.7188,65.8545 Q519.7188,65.4326 519.4844,65.1982 Q519.2969,64.9639 518.9531,64.9326 Q518.625,64.9326 518.3906,65.1201 Q518.125,65.3545 518.125,65.7451 Q518.0938,67.1357 517.5,67.8701 Q516.9688,68.5732 516.0156,68.5732 Q514.8594,68.5732 514.1406,67.1357 Q513.4219,65.6357 513.4219,63.2139 Q513.4219,60.667 514.3125,59.2764 Q515.0625,58.1514 516.2031,58.1514 Q516.8594,58.1514 517.3594,58.6982 Q517.9219,59.3076 518.0469,60.3701 Q518.0938,61.0732 518.9219,60.9639 Q519.7031,60.8545 519.6563,60.167 Q519.4688,58.6514 518.7031,57.7764 Q517.7656,56.7139 516.0781,56.7139 Z " fill="#000000"/><text fill="#000000" font-family="sans-serif" font-size="14" lengthAdjust="spacing" textLength="101" x="536.75" y="69.7681">GameCharacter</text><line style="stroke:#181818;stroke-width:0.5;" x1="416" x2="726" y1="79.2295" y2="79.2295"/><rect fill="none" height="6" style="stroke:#C82930;stroke-width:1.0;" width="6" x="423" y="91.3442"/><text fill="#000000" font-family="sans-serif" font-size="14" lengthAdjust="spacing" textLength="84" x="435" y="99.3828">name : String</text><rect fill="none" height="6" style="stroke:#C82930;stroke-width:1.0;" width="6" x="423" y="110.5737"/><text fill="#000000" font-family="sans-serif" font-size="14" lengthAdjust="spacing" textLength="56" x="435" y="118.6123">level : int</text><rect fill="none" height="6" style="stroke:#C82930;stroke-width:1.0;" width="6" x="423" y="129.8032"/><text fill="#000000" font-family="sans-serif" font-size="14" lengthAdjust="spacing" textLength="43" x="435" y="137.8418">hp : int</text><line style="stroke:#181818;stroke-width:1.0;" x1="416" x2="726" y1="144.918" y2="144.918"/><ellipse cx="426" cy="160.0327" fill="#84BE84" rx="3" ry="3" style="stroke:#038048;stroke-width:1.0;"/><text fill="#000000" font-family="sans-serif" font-size="14" lengthAdjust="spacing" textLength="286" x="435" y="165.0713">GameCharacter(name:String, level:int, hp:int)</text><ellipse cx="426" cy="179.2622" fill="#84BE84" rx="3" ry="3" style="stroke:#038048;stroke-width:1.0;"/><text fill="#000000" font-family="sans-serif" font-size="14" lengthAdjust="spacing" textLength="103" x="435" y="184.3008">showInfo() : void</text><ellipse cx="426" cy="198.4917" fill="#84BE84" rx="3" ry="3" style="stroke:#038048;stroke-width:1.0;"/><text fill="#000000" font-family="sans-serif" font-size="14" lengthAdjust="spacing" textLength="86" x="435" y="203.5303">attack() : void</text></g><!--class Warrior--><g id="elem_Warrior"><rect codeLine="13" fill="#F1F1F1" height="124.918" id="Warrior" rx="2.5" ry="2.5" style="stroke:#181818;stroke-width:0.5;" width="356" x="7" y="270.2295"/><ellipse cx="157.25" cy="286.2295" fill="#ADD1B2" rx="11" ry="11" style="stroke:#181818;stroke-width:1.0;"/><path d="M157.0781,279.7139 Q155.2031,279.7139 154.0469,281.4639 Q152.8594,283.2451 152.8594,286.2451 Q152.8594,289.6201 154.0625,291.3857 Q155.125,293.0107 156.875,293.0107 Q158.5625,293.0107 159.5156,292.1045 Q160.5781,291.0889 160.7188,288.8545 Q160.7188,288.4326 160.4844,288.1982 Q160.2969,287.9639 159.9531,287.9326 Q159.625,287.9326 159.3906,288.1201 Q159.125,288.3545 159.125,288.7451 Q159.0938,290.1357 158.5,290.8701 Q157.9688,291.5732 157.0156,291.5732 Q155.8594,291.5732 155.1406,290.1357 Q154.4219,288.6357 154.4219,286.2139 Q154.4219,283.667 155.3125,282.2764 Q156.0625,281.1514 157.2031,281.1514 Q157.8594,281.1514 158.3594,281.6982 Q158.9219,282.3076 159.0469,283.3701 Q159.0938,284.0732 159.9219,283.9639 Q160.7031,283.8545 160.6563,283.167 Q160.4688,281.6514 159.7031,280.7764 Q158.7656,279.7139 157.0781,279.7139 Z " fill="#000000"/><text fill="#000000" font-family="sans-serif" font-size="14" lengthAdjust="spacing" textLength="47" x="177.75" y="292.7681">Warrior</text><line style="stroke:#181818;stroke-width:0.5;" x1="8" x2="362" y1="302.2295" y2="302.2295"/><rect fill="none" height="6" style="stroke:#C82930;stroke-width:1.0;" width="6" x="15" y="314.3442"/><text fill="#000000" font-family="sans-serif" font-size="14" lengthAdjust="spacing" textLength="98" x="27" y="322.3828">weapon : String</text><line style="stroke:#181818;stroke-width:1.0;" x1="8" x2="362" y1="329.459" y2="329.459"/><ellipse cx="18" cy="344.5737" fill="#84BE84" rx="3" ry="3" style="stroke:#038048;stroke-width:1.0;"/><text fill="#000000" font-family="sans-serif" font-size="14" lengthAdjust="spacing" textLength="330" x="27" y="349.6123">Warrior(name:String, level:int, hp:int, weapon:String)</text><ellipse cx="18" cy="363.8032" fill="#84BE84" rx="3" ry="3" style="stroke:#038048;stroke-width:1.0;"/><text fill="#000000" font-family="sans-serif" font-size="14" lengthAdjust="spacing" textLength="86" x="27" y="368.8418">attack() : void</text><ellipse cx="18" cy="383.0327" fill="#84BE84" rx="3" ry="3" style="stroke:#038048;stroke-width:1.0;"/><text fill="#000000" font-family="sans-serif" font-size="14" lengthAdjust="spacing" textLength="92" x="27" y="388.0713">defend() : void</text></g><!--class Mage--><g id="elem_Mage"><rect codeLine="21" fill="#F1F1F1" height="124.918" id="Mage" rx="2.5" ry="2.5" style="stroke:#181818;stroke-width:0.5;" width="345" x="398.5" y="270.2295"/><ellipse cx="549.25" cy="286.2295" fill="#ADD1B2" rx="11" ry="11" style="stroke:#181818;stroke-width:1.0;"/><path d="M549.0781,279.7139 Q547.2031,279.7139 546.0469,281.4639 Q544.8594,283.2451 544.8594,286.2451 Q544.8594,289.6201 546.0625,291.3857 Q547.125,293.0107 548.875,293.0107 Q550.5625,293.0107 551.5156,292.1045 Q552.5781,291.0889 552.7188,288.8545 Q552.7188,288.4326 552.4844,288.1982 Q552.2969,287.9639 551.9531,287.9326 Q551.625,287.9326 551.3906,288.1201 Q551.125,288.3545 551.125,288.7451 Q551.0938,290.1357 550.5,290.8701 Q549.9688,291.5732 549.0156,291.5732 Q547.8594,291.5732 547.1406,290.1357 Q546.4219,288.6357 546.4219,286.2139 Q546.4219,283.667 547.3125,282.2764 Q548.0625,281.1514 549.2031,281.1514 Q549.8594,281.1514 550.3594,281.6982 Q550.9219,282.3076 551.0469,283.3701 Q551.0938,284.0732 551.9219,283.9639 Q552.7031,283.8545 552.6563,283.167 Q552.4688,281.6514 551.7031,280.7764 Q550.7656,279.7139 549.0781,279.7139 Z " fill="#000000"/><text fill="#000000" font-family="sans-serif" font-size="14" lengthAdjust="spacing" textLength="35" x="569.75" y="292.7681">Mage</text><line style="stroke:#181818;stroke-width:0.5;" x1="399.5" x2="742.5" y1="302.2295" y2="302.2295"/><rect fill="none" height="6" style="stroke:#C82930;stroke-width:1.0;" width="6" x="406.5" y="314.3442"/><text fill="#000000" font-family="sans-serif" font-size="14" lengthAdjust="spacing" textLength="99" x="418.5" y="322.3828">element : String</text><line style="stroke:#181818;stroke-width:1.0;" x1="399.5" x2="742.5" y1="329.459" y2="329.459"/><ellipse cx="409.5" cy="344.5737" fill="#84BE84" rx="3" ry="3" style="stroke:#038048;stroke-width:1.0;"/><text fill="#000000" font-family="sans-serif" font-size="14" lengthAdjust="spacing" textLength="319" x="418.5" y="349.6123">Mage(name:String, level:int, hp:int, element:String)</text><ellipse cx="409.5" cy="363.8032" fill="#84BE84" rx="3" ry="3" style="stroke:#038048;stroke-width:1.0;"/><text fill="#000000" font-family="sans-serif" font-size="14" lengthAdjust="spacing" textLength="86" x="418.5" y="368.8418">attack() : void</text><ellipse cx="409.5" cy="383.0327" fill="#84BE84" rx="3" ry="3" style="stroke:#038048;stroke-width:1.0;"/><text fill="#000000" font-family="sans-serif" font-size="14" lengthAdjust="spacing" textLength="96" x="418.5" y="388.0713">teleport() : void</text></g><!--class Archer--><g id="elem_Archer"><rect codeLine="29" fill="#F1F1F1" height="124.918" id="Archer" rx="2.5" ry="2.5" style="stroke:#181818;stroke-width:0.5;" width="359" x="778.5" y="270.2295"/><ellipse cx="932.75" cy="286.2295" fill="#ADD1B2" rx="11" ry="11" style="stroke:#181818;stroke-width:1.0;"/><path d="M932.5781,279.7139 Q930.7031,279.7139 929.5469,281.4639 Q928.3594,283.2451 928.3594,286.2451 Q928.3594,289.6201 929.5625,291.3857 Q930.625,293.0107 932.375,293.0107 Q934.0625,293.0107 935.0156,292.1045 Q936.0781,291.0889 936.2188,288.8545 Q936.2188,288.4326 935.9844,288.1982 Q935.7969,287.9639 935.4531,287.9326 Q935.125,287.9326 934.8906,288.1201 Q934.625,288.3545 934.625,288.7451 Q934.5938,290.1357 934,290.8701 Q933.4688,291.5732 932.5156,291.5732 Q931.3594,291.5732 930.6406,290.1357 Q929.9219,288.6357 929.9219,286.2139 Q929.9219,283.667 930.8125,282.2764 Q931.5625,281.1514 932.7031,281.1514 Q933.3594,281.1514 933.8594,281.6982 Q934.4219,282.3076 934.5469,283.3701 Q934.5938,284.0732 935.4219,283.9639 Q936.2031,283.8545 936.1563,283.167 Q935.9688,281.6514 935.2031,280.7764 Q934.2656,279.7139 932.5781,279.7139 Z " fill="#000000"/><text fill="#000000" font-family="sans-serif" font-size="14" lengthAdjust="spacing" textLength="42" x="953.25" y="292.7681">Archer</text><line style="stroke:#181818;stroke-width:0.5;" x1="779.5" x2="1136.5" y1="302.2295" y2="302.2295"/><rect fill="none" height="6" style="stroke:#C82930;stroke-width:1.0;" width="6" x="786.5" y="314.3442"/><text fill="#000000" font-family="sans-serif" font-size="14" lengthAdjust="spacing" textLength="106" x="798.5" y="322.3828">bowType : String</text><line style="stroke:#181818;stroke-width:1.0;" x1="779.5" x2="1136.5" y1="329.459" y2="329.459"/><ellipse cx="789.5" cy="344.5737" fill="#84BE84" rx="3" ry="3" style="stroke:#038048;stroke-width:1.0;"/><text fill="#000000" font-family="sans-serif" font-size="14" lengthAdjust="spacing" textLength="333" x="798.5" y="349.6123">Archer(name:String, level:int, hp:int, bowType:String)</text><ellipse cx="789.5" cy="363.8032" fill="#84BE84" rx="3" ry="3" style="stroke:#038048;stroke-width:1.0;"/><text fill="#000000" font-family="sans-serif" font-size="14" lengthAdjust="spacing" textLength="86" x="798.5" y="368.8418">attack() : void</text><ellipse cx="789.5" cy="383.0327" fill="#84BE84" rx="3" ry="3" style="stroke:#038048;stroke-width:1.0;"/><text fill="#000000" font-family="sans-serif" font-size="14" lengthAdjust="spacing" textLength="75" x="798.5" y="388.0713">hide() : void</text></g><!--reverse link GameCharacter to Warrior--><g id="link_GameCharacter_Warrior"><path codeLine="37" d="M401.1119,218.6357 C362.9719,238.5957 338.66,251.3195 302.58,270.1995 " fill="none" id="GameCharacter-backto-Warrior" style="stroke:#181818;stroke-width:1.0;"/><polygon fill="none" points="417.06,210.2895,398.3299,213.3197,403.894,223.9517,417.06,210.2895" style="stroke:#181818;stroke-width:1.0;"/></g><!--reverse link GameCharacter to Mage--><g id="link_GameCharacter_Mage"><path codeLine="38" d="M571,228.4395 C571,248.3295 571,251.3095 571,270.1295 " fill="none" id="GameCharacter-backto-Mage" style="stroke:#181818;stroke-width:1.0;"/><polygon fill="none" points="571,210.4395,565,228.4395,577,228.4395,571,210.4395" style="stroke:#181818;stroke-width:1.0;"/></g><!--reverse link GameCharacter to Archer--><g id="link_GameCharacter_Archer"><path codeLine="39" d="M741.297,218.6185 C779.537,238.5785 803.94,251.3195 840.12,270.1995 " fill="none" id="GameCharacter-backto-Archer" style="stroke:#181818;stroke-width:1.0;"/><polygon fill="none" points="725.34,210.2895,738.5207,223.9375,744.0734,213.2995,725.34,210.2895" style="stroke:#181818;stroke-width:1.0;"/></g><!--SRC=[XPAnJiCm54NtVCKR6v7yGCHICLGTa52BnFn8NciBruwSfqO8-1Xs1XP-2l4HsB535MJ9YorVttjzP9ibAuBTtGOsUA8RWHPR9WlR_Hg-lpv-tZ-BebKu3F_sNmg06hJJe84zMwcFawBeJCf9KlEq5lrbKRlXQjcpyWrDo5SXt3XtvN9-BgV48CourGUpAbtNsSXkKf4PswUBzZQ3Fg2rqio88s5lz08oS4HRXg2A1T5H9e_sMaS7qbq2vnQF55b8qOaq9s2yAKiIuraKTiRUM4x0h6qh_bxlqOptppqbS88j2nGBia12ThI0MVwbwzUwdfyZjUKl9wK7oby0]--></g></svg>